<?xml version="1.0" encoding="UTF-8" standalone="no"?>
<svg viewBox="0 0 1956 1440"
     preserveAspectRatio="xMidYMid meet"
     version="1.1"
     baseProfile="full"
     xmlns="http://www.w3.org/2000/svg"
     xmlns:xlink="http://www.w3.org/1999/xlink"
     xmlns:ev="http://www.w3.org/2001/xml-events"
     xml:space="preserve">
<title>c2cSlave_imp</title>
<desc>Nlview schematic (SVG)</desc>
<clipPath id="clippingbbox">
<rect x="0" y="0" width="1956" height="1440" />
</clipPath>
<g stroke="#102235"
   stroke-width="1"
   stroke-linecap="butt"
   stroke-linejoin="miter"
   stroke-miterlimit="4"
   stroke-dasharray="none"
   stroke-dashoffset="0"
   fill="none"
   font-family="Helvetica"
   font-style="normal"
   font-size="12"
   writing-mode="lr-tb"
   cursor="crosshair"
   clip-path="url(#clippingbbox)">
<path d="M0 0h1956v1441h-1956z" stroke="none" fill="white" />
<path d="M221 830l-7 7h-14v-14h14z" stroke="none" fill="#ddd4d0" />
<g>
<path d="M221 830l-7 7h-14v-14h14z" />
<text x="196" y="830" fill="black" stroke-width="0" text-anchor="end" dy="3.85">AXI_CLK</text>
<path d="M1641 501v-7h14l7 7l-7 7h-14z" stroke="none" fill="#ddd4d0" />
</g>
<g stroke-width="3">
<path d="M1641 501v-7h14l7 7l-7 7h-14z" />
<text x="1666" y="501" fill="black" stroke-width="0" dy="3.85">AXI_RST_N[0:0]</text>
<path d="M1641 421v-7h14l7 7l-7 7h-14z" stroke="none" fill="#ddd4d0" />
</g>
<g stroke="#2a5e6f" stroke-width="3">
<path d="M1641 421v-7h14l7 7l-7 7h-14z" />
<text x="1666" y="421" fill="black" stroke-width="0" dy="3.85">DAQ</text>
<path d="M1641 481v-7h14l7 7l-7 7h-14z" stroke="none" fill="#ddd4d0" />
<path d="M1641 481v-7h14l7 7l-7 7h-14z" />
<text x="1666" y="481" fill="black" stroke-width="0" dy="3.85">FM</text>
<path d="M1641 281v-7h14l7 7l-7 7h-14z" stroke="none" fill="#ddd4d0" />
<path d="M1641 281v-7h14l7 7l-7 7h-14z" />
<text x="1666" y="281" fill="black" stroke-width="0" dy="3.85">FW_INFO</text>
<path d="M1641 321v-7h14l7 7l-7 7h-14z" stroke="none" fill="#ddd4d0" />
<path d="M1641 321v-7h14l7 7l-7 7h-14z" />
<text x="1666" y="321" fill="black" stroke-width="0" dy="3.85">HAL</text>
<path d="M1641 301v-7h14l7 7l-7 7h-14z" stroke="none" fill="#ddd4d0" />
<path d="M1641 301v-7h14l7 7l-7 7h-14z" />
<text x="1666" y="301" fill="black" stroke-width="0" dy="3.85">HAL_CORE</text>
<path d="M1641 341v-7h14l7 7l-7 7h-14z" stroke="none" fill="#ddd4d0" />
<path d="M1641 341v-7h14l7 7l-7 7h-14z" />
<text x="1666" y="341" fill="black" stroke-width="0" dy="3.85">H2S</text>
<path d="M1238 52h206l3 1l2 1l1 2l1 3v202l-1 3l-1 2l-2 1l-3 1h-206l-3 -1l-2 -1l-1 -2l-1 -3v-202l1 -3l1 -2l2 -1z" stroke="none" fill="#edf6fe" />
<text x="1341" y="50" fill="black" stroke-width="0" text-anchor="middle">KINTEX_SYS_MGMT</text>
<text x="1341" y="270" fill="#41619f" stroke-width="0" text-anchor="middle" dy="7.7">System Management Wizard</text>
<path d="M1221 121h10v18h-10z" stroke="none" fill="#edf6fe" />
</g>
<g stroke="#41619f" stroke-width="3">
<path d="M1240 125v10" />
<path d="M1235 130h10" />
</g>
<g stroke="#41619f">
<path d="M1233 123h14v14h-14z" />
<text x="1248" y="130" fill="black" stroke-width="0" font-size="10" dy="3.25">S_AXI_LITE</text>
<path d="M1221 141h10v18h-10z" stroke="none" fill="#edf6fe" />
</g>
<g stroke="#41619f" stroke-width="3">
<path d="M1240 145v10" />
<path d="M1235 150h10" />
</g>
<g stroke="#41619f">
<path d="M1233 143h14v14h-14z" />
<text x="1248" y="150" fill="black" stroke-width="0" font-size="10" dy="3.25">Vp_Vn</text>
</g>
<g stroke="black" stroke-width="3">
<path d="M1221 170h10" />
<text x="1233" y="170" fill="black" stroke-width="0" font-size="10" dy="3.25">s_axi_aclk</text>
<circle cx="1228" cy="190" r="3" />
<path d="M1221 190h4" />
<text x="1233" y="190" fill="black" stroke-width="0" font-size="10" dy="3.25">s_axi_aresetn</text>
<path d="M1461 80h-10" />
<text x="1449" y="80" fill="black" stroke-width="0" font-size="10" text-anchor="end" dy="3.25">ip2intc_irpt</text>
<path d="M1461 100h-10" />
<text x="1449" y="100" fill="black" stroke-width="0" font-size="10" text-anchor="end" dy="3.25">vccint_alarm_out</text>
<path d="M1461 120h-10" />
<text x="1449" y="120" fill="black" stroke-width="0" font-size="10" text-anchor="end" dy="3.25">vccaux_alarm_out</text>
<path d="M1461 140h-10" />
<text x="1449" y="140" fill="black" stroke-width="0" font-size="10" text-anchor="end" dy="3.25">ot_out</text>
</g>
<g stroke="black" stroke-width="5">
<path d="M1461 160h-10" />
<text x="1449" y="160" fill="black" stroke-width="0" font-size="10" text-anchor="end" dy="3.25">channel_out[5:0]</text>
</g>
<g stroke="black" stroke-width="3">
<path d="M1461 180h-10" />
<text x="1449" y="180" fill="black" stroke-width="0" font-size="10" text-anchor="end" dy="3.25">eoc_out</text>
<path d="M1461 200h-10" />
<text x="1449" y="200" fill="black" stroke-width="0" font-size="10" text-anchor="end" dy="3.25">alarm_out</text>
<path d="M1461 220h-10" />
<text x="1449" y="220" fill="black" stroke-width="0" font-size="10" text-anchor="end" dy="3.25">eos_out</text>
<path d="M1461 240h-10" />
<text x="1449" y="240" fill="black" stroke-width="0" font-size="10" text-anchor="end" dy="3.25">busy_out</text>
</g>
<g stroke="#41619f">
<path d="M1238 52h206" />
<path d="M1444,52 A6.83537,6.83537 1.61957 0,1 1451,59" />
<path d="M1451 59v202" />
<path d="M1451,261 A6.83537,6.83537 1.61957 0,1 1444,268" />
<path d="M1444 268h-206" />
<path d="M1238,268 A6.83537,6.83537 1.61957 0,1 1231,261" />
<path d="M1231 261v-202" />
<path d="M1231,59 A6.83537,6.83537 1.61957 0,1 1238,52" />
<path d="M1641 200v-7h14l7 7l-7 7h-14z" stroke="none" fill="#ddd4d0" />
</g>
<g>
<path d="M1641 200v-7h14l7 7l-7 7h-14z" />
<text x="1666" y="200" fill="black" stroke-width="0" dy="3.85">KINTEX_SYS_MGMT_alarm</text>
<path d="M1641 140v-7h14l7 7l-7 7h-14z" stroke="none" fill="#ddd4d0" />
<path d="M1641 140v-7h14l7 7l-7 7h-14z" />
<text x="1666" y="140" fill="black" stroke-width="0" dy="3.85">KINTEX_SYS_MGMT_overtemp_alarm</text>
<path d="M1641 120v-7h14l7 7l-7 7h-14z" stroke="none" fill="#ddd4d0" />
<path d="M1641 120v-7h14l7 7l-7 7h-14z" />
<text x="1666" y="120" fill="black" stroke-width="0" dy="3.85">KINTEX_SYS_MGMT_vccaux_alarm</text>
<path d="M1641 100v-7h14l7 7l-7 7h-14z" stroke="none" fill="#ddd4d0" />
<path d="M1641 100v-7h14l7 7l-7 7h-14z" />
<text x="1666" y="100" fill="black" stroke-width="0" dy="3.85">KINTEX_SYS_MGMT_vccint_alarm</text>
<path d="M318 882h346l3 1l2 1l1 2l1 3v222l-1 3l-1 2l-2 1l-3 1h-346l-3 -1l-2 -1l-1 -2l-1 -3v-222l1 -3l1 -2l2 -1z" stroke="none" fill="#edf6fe" />
<text x="491" y="880" fill="black" stroke-width="0" text-anchor="middle">K_C2CLINK</text>
<text x="491" y="1120" fill="#41619f" stroke-width="0" text-anchor="middle" dy="7.7">AXI Chip2Chip Bridge</text>
<path d="M671 901h10v18h-10z" stroke="none" fill="#edf6fe" />
</g>
<g stroke="#41619f" stroke-width="3">
<path d="M661 905v10" />
<path d="M656 910h10" />
</g>
<g stroke="#41619f">
<path d="M654 903h14v14h-14z" />
<text x="654" y="910" fill="black" stroke-width="0" font-size="10" text-anchor="end" dy="3.25">m_axi</text>
<path d="M671 921h10v18h-10z" stroke="none" fill="#edf6fe" />
</g>
<g stroke="#41619f" stroke-width="3">
<path d="M661 925v10" />
<path d="M656 930h10" />
</g>
<g stroke="#41619f">
<path d="M654 923h14v14h-14z" />
<text x="654" y="930" fill="black" stroke-width="0" font-size="10" text-anchor="end" dy="3.25">m_axi_lite</text>
<path d="M301 901h10v18h-10z" stroke="none" fill="#edf6fe" />
</g>
<g stroke="#41619f" stroke-width="3">
<path d="M320 905v10" />
<path d="M315 910h10" />
</g>
<g stroke="#41619f">
<path d="M313 903h14v14h-14z" />
<text x="328" y="910" fill="black" stroke-width="0" font-size="10" dy="3.25">AXIS_RX</text>
<path d="M671 941h10v18h-10z" stroke="none" fill="#edf6fe" />
</g>
<g stroke="#41619f" stroke-width="3">
<path d="M661 945v10" />
<path d="M656 950h10" />
</g>
<g stroke="#41619f">
<path d="M654 943h14v14h-14z" />
<text x="654" y="950" fill="black" stroke-width="0" font-size="10" text-anchor="end" dy="3.25">AXIS_TX</text>
</g>
<g stroke="black" stroke-width="3">
<path d="M301 930h10" />
<text x="313" y="930" fill="black" stroke-width="0" font-size="10" dy="3.25">m_aclk</text>
<circle cx="308" cy="950" r="3" />
<path d="M301 950h4" />
<text x="313" y="950" fill="black" stroke-width="0" font-size="10" dy="3.25">m_aresetn</text>
</g>
<g stroke="black" stroke-width="5">
<path d="M301 970h10" />
<text x="313" y="970" fill="black" stroke-width="0" font-size="10" dy="3.25">axi_c2c_s2m_intr_in[3:0]</text>
<path d="M681 970h-10" />
<text x="669" y="970" fill="black" stroke-width="0" font-size="10" text-anchor="end" dy="3.25">axi_c2c_m2s_intr_out[3:0]</text>
</g>
<g stroke="black" stroke-width="3">
<path d="M301 990h10" />
<text x="313" y="990" fill="black" stroke-width="0" font-size="10" dy="3.25">axi_c2c_phy_clk</text>
<path d="M301 1010h10" />
<text x="313" y="1010" fill="black" stroke-width="0" font-size="10" dy="3.25">axi_c2c_aurora_channel_up</text>
<path d="M681 990h-10" />
<text x="669" y="990" fill="black" stroke-width="0" font-size="10" text-anchor="end" dy="3.25">aurora_do_cc</text>
<path d="M301 1030h10" />
<text x="313" y="1030" fill="black" stroke-width="0" font-size="10" dy="3.25">aurora_pma_init_in</text>
<path d="M301 1050h10" />
<text x="313" y="1050" fill="black" stroke-width="0" font-size="10" dy="3.25">aurora_init_clk</text>
<path d="M681 1010h-10" />
<text x="669" y="1010" fill="black" stroke-width="0" font-size="10" text-anchor="end" dy="3.25">aurora_pma_init_out</text>
<path d="M301 1070h10" />
<text x="313" y="1070" fill="black" stroke-width="0" font-size="10" dy="3.25">aurora_mmcm_not_locked</text>
<path d="M681 1030h-10" />
<text x="669" y="1030" fill="black" stroke-width="0" font-size="10" text-anchor="end" dy="3.25">aurora_reset_pb</text>
<path d="M681 1050h-10" />
<text x="669" y="1050" fill="black" stroke-width="0" font-size="10" text-anchor="end" dy="3.25">axi_c2c_config_error_out</text>
<path d="M681 1070h-10" />
<text x="669" y="1070" fill="black" stroke-width="0" font-size="10" text-anchor="end" dy="3.25">axi_c2c_link_status_out</text>
<path d="M681 1090h-10" />
<text x="669" y="1090" fill="black" stroke-width="0" font-size="10" text-anchor="end" dy="3.25">axi_c2c_multi_bit_error_out</text>
<path d="M301 1090h10" />
<text x="313" y="1090" fill="black" stroke-width="0" font-size="10" dy="3.25">m_axi_lite_aclk</text>
</g>
<g stroke="#41619f">
<path d="M318 882h346" />
<path d="M664,882 A6.83537,6.83537 1.61957 0,1 671,889" />
<path d="M671 889v222" />
<path d="M671,1111 A6.83537,6.83537 1.61957 0,1 664,1118" />
<path d="M664 1118h-346" />
<path d="M318,1118 A6.83537,6.83537 1.61957 0,1 311,1111" />
<path d="M311 1111v-222" />
<path d="M311,889 A6.83537,6.83537 1.61957 0,1 318,882" />
<path d="M1198 1012h286l3 1l2 1l1 2l1 3v362l-1 3l-1 2l-2 1l-3 1h-286l-3 -1l-2 -1l-1 -2l-1 -3v-362l1 -3l1 -2l2 -1z" stroke="none" fill="#edf6fe" />
<text x="1341" y="1010" fill="black" stroke-width="0" text-anchor="middle">K_C2CLINK_PHY</text>
<text x="1341" y="1390" fill="#41619f" stroke-width="0" text-anchor="middle" dy="7.7">Aurora 64B66B</text>
<path d="M1181 1111h10v18h-10z" stroke="none" fill="#edf6fe" />
</g>
<g stroke="#41619f" stroke-width="3">
<path d="M1200 1115v10" />
<path d="M1195 1120h10" />
</g>
<g stroke="#41619f">
<path d="M1193 1113h14v14h-14z" />
<text x="1208" y="1120" fill="black" stroke-width="0" font-size="10" dy="3.25">USER_DATA_S_AXIS_TX</text>
<path d="M1491 1031h10v18h-10z" stroke="none" fill="#edf6fe" />
</g>
<g stroke="#41619f" stroke-width="3">
<path d="M1481 1035v10" />
<path d="M1476 1040h10" />
</g>
<g stroke="#41619f">
<path d="M1474 1033h14v14h-14z" />
<text x="1474" y="1040" fill="black" stroke-width="0" font-size="10" text-anchor="end" dy="3.25">USER_DATA_M_AXIS_RX</text>
<path d="M1181 1131h10v18h-10z" stroke="none" fill="#edf6fe" />
</g>
<g stroke="#41619f" stroke-width="3">
<path d="M1200 1135v10" />
<path d="M1195 1140h10" />
</g>
<g stroke="#41619f">
<path d="M1193 1133h14v14h-14z" />
<text x="1208" y="1140" fill="black" stroke-width="0" font-size="10" dy="3.25">AXILITE_DRP_IF_0</text>
<path d="M1181 1151h10v18h-10z" stroke="none" fill="#edf6fe" />
</g>
<g stroke="#41619f" stroke-width="3">
<path d="M1200 1155v10" />
<path d="M1195 1160h10" />
</g>
<g stroke="#41619f">
<path d="M1193 1153h14v14h-14z" />
<text x="1208" y="1160" fill="black" stroke-width="0" font-size="10" dy="3.25">GT_DIFF_REFCLK1</text>
<path d="M1491 1051h10v138h-10z" stroke="none" fill="#edf6fe" />
</g>
<g stroke="#41619f" stroke-width="3">
<path d="M1476 1060h10" />
</g>
<g stroke="#41619f">
<path d="M1474 1053h14v14h-14z" />
<text x="1474" y="1060" fill="black" stroke-width="0" font-size="10" text-anchor="end" dy="3.25">CORE_STATUS</text>
</g>
<g stroke="black" stroke-width="2">
<path d="M1501 1080h-10" />
<path d="M1470 1075l8 5l-8 5z" stroke="none" fill="#41619f" />
<text x="1469" y="1080" fill="black" stroke-width="0" font-size="10" text-anchor="end" dy="3.25">channel_up</text>
<path d="M1501 1100h-10" />
<path d="M1470 1095l8 5l-8 5z" stroke="none" fill="#41619f" />
<text x="1469" y="1100" fill="black" stroke-width="0" font-size="10" text-anchor="end" dy="3.25">gt_pll_lock</text>
<path d="M1501 1120h-10" />
<path d="M1470 1115l8 5l-8 5z" stroke="none" fill="#41619f" />
<text x="1469" y="1120" fill="black" stroke-width="0" font-size="10" text-anchor="end" dy="3.25">hard_err</text>
</g>
<g stroke="black" stroke-width="3">
<path d="M1501 1140h-10" />
<path d="M1470 1135l8 5l-8 5z" stroke="none" fill="#41619f" />
<text x="1469" y="1140" fill="black" stroke-width="0" font-size="10" text-anchor="end" dy="3.25">lane_up[0:0]</text>
</g>
<g stroke="black" stroke-width="2">
<path d="M1501 1160h-10" />
<path d="M1470 1155l8 5l-8 5z" stroke="none" fill="#41619f" />
<text x="1469" y="1160" fill="black" stroke-width="0" font-size="10" text-anchor="end" dy="3.25">mmcm_not_locked_out</text>
<path d="M1501 1180h-10" />
<path d="M1470 1175l8 5l-8 5z" stroke="none" fill="#41619f" />
<text x="1469" y="1180" fill="black" stroke-width="0" font-size="10" text-anchor="end" dy="3.25">soft_err</text>
<path d="M1181 1171h10v38h-10z" stroke="none" fill="#edf6fe" />
</g>
<g stroke="#41619f" stroke-width="3">
<path d="M1200 1175v10" />
<path d="M1195 1180h10" />
</g>
<g stroke="#41619f">
<path d="M1193 1173h14v14h-14z" />
<text x="1208" y="1180" fill="black" stroke-width="0" font-size="10" dy="3.25">CORE_CONTROL</text>
</g>
<g stroke="black" stroke-width="2">
<path d="M1181 1200h10" />
<path d="M1204 1195l8 5l-8 5z" stroke="none" fill="#41619f" />
<text x="1213" y="1200" fill="black" stroke-width="0" font-size="10" dy="3.25">power_down</text>
<path d="M1491 1191h10v18h-10z" stroke="none" fill="#edf6fe" />
</g>
<g stroke="#41619f" stroke-width="3">
<path d="M1481 1195v10" />
<path d="M1476 1200h10" />
</g>
<g stroke="#41619f">
<path d="M1474 1193h14v14h-14z" />
<text x="1474" y="1200" fill="black" stroke-width="0" font-size="10" text-anchor="end" dy="3.25">GT_SERIAL_TX</text>
<path d="M1181 1211h10v18h-10z" stroke="none" fill="#edf6fe" />
</g>
<g stroke="#41619f" stroke-width="3">
<path d="M1200 1215v10" />
<path d="M1195 1220h10" />
</g>
<g stroke="#41619f">
<path d="M1193 1213h14v14h-14z" />
<text x="1208" y="1220" fill="black" stroke-width="0" font-size="10" dy="3.25">GT_SERIAL_RX</text>
</g>
<g stroke="black" stroke-width="3">
<path d="M1181 1240h10" />
<text x="1193" y="1240" fill="black" stroke-width="0" font-size="10" dy="3.25">reset_pb</text>
<path d="M1181 1260h10" />
<text x="1193" y="1260" fill="black" stroke-width="0" font-size="10" dy="3.25">pma_init</text>
<path d="M1501 1220h-10" />
<text x="1489" y="1220" fill="black" stroke-width="0" font-size="10" text-anchor="end" dy="3.25">tx_out_clk</text>
<path d="M1181 1280h10" />
<text x="1193" y="1280" fill="black" stroke-width="0" font-size="10" dy="3.25">init_clk</text>
<path d="M1501 1240h-10" />
<text x="1489" y="1240" fill="black" stroke-width="0" font-size="10" text-anchor="end" dy="3.25">link_reset_out</text>
<path d="M1501 1260h-10" />
<text x="1489" y="1260" fill="black" stroke-width="0" font-size="10" text-anchor="end" dy="3.25">user_clk_out</text>
<path d="M1501 1280h-10" />
<text x="1489" y="1280" fill="black" stroke-width="0" font-size="10" text-anchor="end" dy="3.25">sync_clk_out</text>
<path d="M1501 1300h-10" />
<text x="1489" y="1300" fill="black" stroke-width="0" font-size="10" text-anchor="end" dy="3.25">sys_reset_out</text>
<path d="M1501 1320h-10" />
<text x="1489" y="1320" fill="black" stroke-width="0" font-size="10" text-anchor="end" dy="3.25">gt_reset_out</text>
<path d="M1501 1340h-10" />
<text x="1489" y="1340" fill="black" stroke-width="0" font-size="10" text-anchor="end" dy="3.25">gt_refclk1_out</text>
</g>
<g stroke="black" stroke-width="5">
<path d="M1501 1360h-10" />
<text x="1489" y="1360" fill="black" stroke-width="0" font-size="10" text-anchor="end" dy="3.25">gt_powergood[0:0]</text>
</g>
<g stroke="#41619f">
<path d="M1198 1012h286" />
<path d="M1484,1012 A6.83537,6.83537 1.61957 0,1 1491,1019" />
<path d="M1491 1019v362" />
<path d="M1491,1381 A6.83537,6.83537 1.61957 0,1 1484,1388" />
<path d="M1484 1388h-286" />
<path d="M1198,1388 A6.83537,6.83537 1.61957 0,1 1191,1381" />
<path d="M1191 1381v-362" />
<path d="M1191,1019 A6.83537,6.83537 1.61957 0,1 1198,1012" />
<path d="M221 1220l-7 7h-14v-14h14z" stroke="none" fill="#ddd4d0" />
</g>
<g stroke="#2a5e6f" stroke-width="3">
<path d="M221 1220l-7 7h-14v-14h14z" />
<text x="196" y="1220" fill="black" stroke-width="0" text-anchor="end" dy="3.85">K_C2CLINK_PHY_Rx</text>
<path d="M1641 1200v-7h14l7 7l-7 7h-14z" stroke="none" fill="#ddd4d0" />
<path d="M1641 1200v-7h14l7 7l-7 7h-14z" />
<text x="1666" y="1200" fill="black" stroke-width="0" dy="3.85">K_C2CLINK_PHY_Tx</text>
<path d="M1641 1100v-7h14l7 7l-7 7h-14z" stroke="none" fill="#ddd4d0" />
</g>
<g>
<path d="M1641 1100v-7h14l7 7l-7 7h-14z" />
<text x="1666" y="1100" fill="black" stroke-width="0" dy="3.85">K_C2CLINK_PHY_gt_pll_lock</text>
<path d="M1641 1120v-7h14l7 7l-7 7h-14z" stroke="none" fill="#ddd4d0" />
<path d="M1641 1120v-7h14l7 7l-7 7h-14z" />
<text x="1666" y="1120" fill="black" stroke-width="0" dy="3.85">K_C2CLINK_PHY_hard_err</text>
<path d="M1641 1140v-7h14l7 7l-7 7h-14z" stroke="none" fill="#ddd4d0" />
</g>
<g stroke-width="3">
<path d="M1641 1140v-7h14l7 7l-7 7h-14z" />
<text x="1666" y="1140" fill="black" stroke-width="0" dy="3.85">K_C2CLINK_PHY_lane_up[0:0]</text>
<path d="M1641 1240v-7h14l7 7l-7 7h-14z" stroke="none" fill="#ddd4d0" />
</g>
<g>
<path d="M1641 1240v-7h14l7 7l-7 7h-14z" />
<text x="1666" y="1240" fill="black" stroke-width="0" dy="3.85">K_C2CLINK_PHY_link_reset_out</text>
<path d="M1641 1160v-7h14l7 7l-7 7h-14z" stroke="none" fill="#ddd4d0" />
<path d="M1641 1160v-7h14l7 7l-7 7h-14z" />
<text x="1666" y="1160" fill="black" stroke-width="0" dy="3.85">K_C2CLINK_PHY_mmcm_not_locked_out</text>
<path d="M221 1200l-7 7h-14v-14h14z" stroke="none" fill="#ddd4d0" />
<path d="M221 1200l-7 7h-14v-14h14z" />
<text x="196" y="1200" fill="black" stroke-width="0" text-anchor="end" dy="3.85">K_C2CLINK_PHY_power_down</text>
<path d="M221 1160l-7 7h-14v-14h14z" stroke="none" fill="#ddd4d0" />
</g>
<g stroke="#2a5e6f" stroke-width="3">
<path d="M221 1160l-7 7h-14v-14h14z" />
<text x="196" y="1160" fill="black" stroke-width="0" text-anchor="end" dy="3.85">K_C2CLINK_PHY_refclk</text>
<path d="M1641 1180v-7h14l7 7l-7 7h-14z" stroke="none" fill="#ddd4d0" />
</g>
<g>
<path d="M1641 1180v-7h14l7 7l-7 7h-14z" />
<text x="1666" y="1180" fill="black" stroke-width="0" dy="3.85">K_C2CLINK_PHY_soft_err</text>
<path d="M1641 920v-7h14l7 7l-7 7h-14z" stroke="none" fill="#ddd4d0" />
<path d="M1641 920v-7h14l7 7l-7 7h-14z" />
<text x="1666" y="920" fill="black" stroke-width="0" dy="3.85">K_C2CLINK_aurora_do_cc</text>
<path d="M1641 940v-7h14l7 7l-7 7h-14z" stroke="none" fill="#ddd4d0" />
<path d="M1641 940v-7h14l7 7l-7 7h-14z" />
<text x="1666" y="940" fill="black" stroke-width="0" dy="3.85">K_C2CLINK_axi_c2c_config_error_out</text>
<path d="M1641 960v-7h14l7 7l-7 7h-14z" stroke="none" fill="#ddd4d0" />
<path d="M1641 960v-7h14l7 7l-7 7h-14z" />
<text x="1666" y="960" fill="black" stroke-width="0" dy="3.85">K_C2CLINK_axi_c2c_link_status_out</text>
<path d="M1641 980v-7h14l7 7l-7 7h-14z" stroke="none" fill="#ddd4d0" />
<path d="M1641 980v-7h14l7 7l-7 7h-14z" />
<text x="1666" y="980" fill="black" stroke-width="0" dy="3.85">K_C2CLINK_axi_c2c_multi_bit_error_out</text>
<path d="M1641 461v-7h14l7 7l-7 7h-14z" stroke="none" fill="#ddd4d0" />
</g>
<g stroke="#2a5e6f" stroke-width="3">
<path d="M1641 461v-7h14l7 7l-7 7h-14z" />
<text x="1666" y="461" fill="black" stroke-width="0" dy="3.85">MPL</text>
<path d="M1641 361v-7h14l7 7l-7 7h-14z" stroke="none" fill="#ddd4d0" />
<path d="M1641 361v-7h14l7 7l-7 7h-14z" />
<text x="1666" y="361" fill="black" stroke-width="0" dy="3.85">MTC</text>
<path d="M1641 441v-7h14l7 7l-7 7h-14z" stroke="none" fill="#ddd4d0" />
<path d="M1641 441v-7h14l7 7l-7 7h-14z" />
<text x="1666" y="441" fill="black" stroke-width="0" dy="3.85">TAR</text>
<path d="M1641 381v-7h14l7 7l-7 7h-14z" stroke="none" fill="#ddd4d0" />
<path d="M1641 381v-7h14l7 7l-7 7h-14z" />
<text x="1666" y="381" fill="black" stroke-width="0" dy="3.85">TF</text>
<path d="M1641 401v-7h14l7 7l-7 7h-14z" stroke="none" fill="#ddd4d0" />
<path d="M1641 401v-7h14l7 7l-7 7h-14z" />
<text x="1666" y="401" fill="black" stroke-width="0" dy="3.85">UCM</text>
<path d="M221 370l-7 7h-14v-14h14z" stroke="none" fill="#ddd4d0" />
</g>
<g>
<path d="M221 370l-7 7h-14v-14h14z" />
<text x="196" y="370" fill="black" stroke-width="0" text-anchor="end" dy="3.85">clk40</text>
<path d="M221 1050l-7 7h-14v-14h14z" stroke="none" fill="#ddd4d0" />
<path d="M221 1050l-7 7h-14v-14h14z" />
<text x="196" y="1050" fill="black" stroke-width="0" text-anchor="end" dy="3.85">clk50Mhz</text>
<path d="M221 810l-7 7h-14v-14h14z" stroke="none" fill="#ddd4d0" />
<path d="M221 810l-7 7h-14v-14h14z" />
<text x="196" y="810" fill="black" stroke-width="0" text-anchor="end" dy="3.85">reset_n</text>
<path d="M818 42h206l3 1l2 1l1 2l1 3v662l-1 3l-1 2l-2 1l-3 1h-206l-3 -1l-2 -1l-1 -2l-1 -3v-662l1 -3l1 -2l2 -1z" stroke="none" fill="#edf6fe" />
<text x="921" y="40" fill="black" stroke-width="0" text-anchor="middle">slave_interconnect</text>
<text x="921" y="720" fill="#41619f" stroke-width="0" text-anchor="middle" dy="7.7">AXI Interconnect</text>
</g>
<g stroke="#41619f" stroke-width="3">
<path d="M822 47v12" />
<path d="M816 53h12" />
</g>
<g stroke="#41619f">
<path d="M814 45h16v16h-16z" />
<path d="M801 61h10v18h-10z" stroke="none" fill="#edf6fe" />
</g>
<g stroke="#41619f" stroke-width="3">
<path d="M820 65v10" />
<path d="M815 70h10" />
</g>
<g stroke="#41619f">
<path d="M813 63h14v14h-14z" />
<text x="828" y="70" fill="black" stroke-width="0" font-size="10" dy="3.25">S00_AXI</text>
<path d="M1031 261h10v18h-10z" stroke="none" fill="#edf6fe" />
</g>
<g stroke="#41619f" stroke-width="3">
<path d="M1021 265v10" />
<path d="M1016 270h10" />
</g>
<g stroke="#41619f">
<path d="M1014 263h14v14h-14z" />
<text x="1014" y="270" fill="black" stroke-width="0" font-size="10" text-anchor="end" dy="3.25">M00_AXI</text>
<path d="M801 81h10v18h-10z" stroke="none" fill="#edf6fe" />
</g>
<g stroke="#41619f" stroke-width="3">
<path d="M820 85v10" />
<path d="M815 90h10" />
</g>
<g stroke="#41619f">
<path d="M813 83h14v14h-14z" />
<text x="828" y="90" fill="black" stroke-width="0" font-size="10" dy="3.25">S01_AXI</text>
<path d="M1031 281h10v18h-10z" stroke="none" fill="#edf6fe" />
</g>
<g stroke="#41619f" stroke-width="3">
<path d="M1021 285v10" />
<path d="M1016 290h10" />
</g>
<g stroke="#41619f">
<path d="M1014 283h14v14h-14z" />
<text x="1014" y="290" fill="black" stroke-width="0" font-size="10" text-anchor="end" dy="3.25">M01_AXI</text>
<path d="M1031 301h10v18h-10z" stroke="none" fill="#edf6fe" />
</g>
<g stroke="#41619f" stroke-width="3">
<path d="M1021 305v10" />
<path d="M1016 310h10" />
</g>
<g stroke="#41619f">
<path d="M1014 303h14v14h-14z" />
<text x="1014" y="310" fill="black" stroke-width="0" font-size="10" text-anchor="end" dy="3.25">M02_AXI</text>
<path d="M1031 321h10v18h-10z" stroke="none" fill="#edf6fe" />
</g>
<g stroke="#41619f" stroke-width="3">
<path d="M1021 325v10" />
<path d="M1016 330h10" />
</g>
<g stroke="#41619f">
<path d="M1014 323h14v14h-14z" />
<text x="1014" y="330" fill="black" stroke-width="0" font-size="10" text-anchor="end" dy="3.25">M03_AXI</text>
<path d="M1031 341h10v18h-10z" stroke="none" fill="#edf6fe" />
</g>
<g stroke="#41619f" stroke-width="3">
<path d="M1021 345v10" />
<path d="M1016 350h10" />
</g>
<g stroke="#41619f">
<path d="M1014 343h14v14h-14z" />
<text x="1014" y="350" fill="black" stroke-width="0" font-size="10" text-anchor="end" dy="3.25">M04_AXI</text>
<path d="M1031 361h10v18h-10z" stroke="none" fill="#edf6fe" />
</g>
<g stroke="#41619f" stroke-width="3">
<path d="M1021 365v10" />
<path d="M1016 370h10" />
</g>
<g stroke="#41619f">
<path d="M1014 363h14v14h-14z" />
<text x="1014" y="370" fill="black" stroke-width="0" font-size="10" text-anchor="end" dy="3.25">M05_AXI</text>
<path d="M1031 381h10v18h-10z" stroke="none" fill="#edf6fe" />
</g>
<g stroke="#41619f" stroke-width="3">
<path d="M1021 385v10" />
<path d="M1016 390h10" />
</g>
<g stroke="#41619f">
<path d="M1014 383h14v14h-14z" />
<text x="1014" y="390" fill="black" stroke-width="0" font-size="10" text-anchor="end" dy="3.25">M06_AXI</text>
<path d="M1031 401h10v18h-10z" stroke="none" fill="#edf6fe" />
</g>
<g stroke="#41619f" stroke-width="3">
<path d="M1021 405v10" />
<path d="M1016 410h10" />
</g>
<g stroke="#41619f">
<path d="M1014 403h14v14h-14z" />
<text x="1014" y="410" fill="black" stroke-width="0" font-size="10" text-anchor="end" dy="3.25">M07_AXI</text>
<path d="M1031 421h10v18h-10z" stroke="none" fill="#edf6fe" />
</g>
<g stroke="#41619f" stroke-width="3">
<path d="M1021 425v10" />
<path d="M1016 430h10" />
</g>
<g stroke="#41619f">
<path d="M1014 423h14v14h-14z" />
<text x="1014" y="430" fill="black" stroke-width="0" font-size="10" text-anchor="end" dy="3.25">M08_AXI</text>
<path d="M1031 441h10v18h-10z" stroke="none" fill="#edf6fe" />
</g>
<g stroke="#41619f" stroke-width="3">
<path d="M1021 445v10" />
<path d="M1016 450h10" />
</g>
<g stroke="#41619f">
<path d="M1014 443h14v14h-14z" />
<text x="1014" y="450" fill="black" stroke-width="0" font-size="10" text-anchor="end" dy="3.25">M09_AXI</text>
<path d="M1031 461h10v18h-10z" stroke="none" fill="#edf6fe" />
</g>
<g stroke="#41619f" stroke-width="3">
<path d="M1021 465v10" />
<path d="M1016 470h10" />
</g>
<g stroke="#41619f">
<path d="M1014 463h14v14h-14z" />
<text x="1014" y="470" fill="black" stroke-width="0" font-size="10" text-anchor="end" dy="3.25">M10_AXI</text>
<path d="M1031 481h10v18h-10z" stroke="none" fill="#edf6fe" />
</g>
<g stroke="#41619f" stroke-width="3">
<path d="M1021 485v10" />
<path d="M1016 490h10" />
</g>
<g stroke="#41619f">
<path d="M1014 483h14v14h-14z" />
<text x="1014" y="490" fill="black" stroke-width="0" font-size="10" text-anchor="end" dy="3.25">M11_AXI</text>
</g>
<g stroke="black" stroke-width="3">
<path d="M801 110h10" />
<text x="813" y="110" fill="black" stroke-width="0" font-size="10" dy="3.25">ACLK</text>
<path d="M801 130h10" />
<text x="813" y="130" fill="black" stroke-width="0" font-size="10" dy="3.25">ARESETN</text>
<path d="M801 150h10" />
<text x="813" y="150" fill="black" stroke-width="0" font-size="10" dy="3.25">S00_ACLK</text>
<path d="M801 170h10" />
<text x="813" y="170" fill="black" stroke-width="0" font-size="10" dy="3.25">S00_ARESETN</text>
<path d="M801 190h10" />
<text x="813" y="190" fill="black" stroke-width="0" font-size="10" dy="3.25">M00_ACLK</text>
<path d="M801 210h10" />
<text x="813" y="210" fill="black" stroke-width="0" font-size="10" dy="3.25">M00_ARESETN</text>
<path d="M801 230h10" />
<text x="813" y="230" fill="black" stroke-width="0" font-size="10" dy="3.25">S01_ACLK</text>
<path d="M801 250h10" />
<text x="813" y="250" fill="black" stroke-width="0" font-size="10" dy="3.25">S01_ARESETN</text>
<path d="M801 270h10" />
<text x="813" y="270" fill="black" stroke-width="0" font-size="10" dy="3.25">M01_ACLK</text>
<path d="M801 290h10" />
<text x="813" y="290" fill="black" stroke-width="0" font-size="10" dy="3.25">M01_ARESETN</text>
<path d="M801 310h10" />
<text x="813" y="310" fill="black" stroke-width="0" font-size="10" dy="3.25">M02_ACLK</text>
<path d="M801 330h10" />
<text x="813" y="330" fill="black" stroke-width="0" font-size="10" dy="3.25">M02_ARESETN</text>
<path d="M801 350h10" />
<text x="813" y="350" fill="black" stroke-width="0" font-size="10" dy="3.25">M03_ACLK</text>
<path d="M801 370h10" />
<text x="813" y="370" fill="black" stroke-width="0" font-size="10" dy="3.25">M03_ARESETN</text>
<path d="M801 390h10" />
<text x="813" y="390" fill="black" stroke-width="0" font-size="10" dy="3.25">M04_ACLK</text>
<path d="M801 410h10" />
<text x="813" y="410" fill="black" stroke-width="0" font-size="10" dy="3.25">M04_ARESETN</text>
<path d="M801 430h10" />
<text x="813" y="430" fill="black" stroke-width="0" font-size="10" dy="3.25">M05_ACLK</text>
<path d="M801 450h10" />
<text x="813" y="450" fill="black" stroke-width="0" font-size="10" dy="3.25">M05_ARESETN</text>
<path d="M801 470h10" />
<text x="813" y="470" fill="black" stroke-width="0" font-size="10" dy="3.25">M06_ACLK</text>
<path d="M801 490h10" />
<text x="813" y="490" fill="black" stroke-width="0" font-size="10" dy="3.25">M06_ARESETN</text>
<path d="M801 510h10" />
<text x="813" y="510" fill="black" stroke-width="0" font-size="10" dy="3.25">M07_ACLK</text>
<path d="M801 530h10" />
<text x="813" y="530" fill="black" stroke-width="0" font-size="10" dy="3.25">M07_ARESETN</text>
<path d="M801 550h10" />
<text x="813" y="550" fill="black" stroke-width="0" font-size="10" dy="3.25">M08_ACLK</text>
<path d="M801 570h10" />
<text x="813" y="570" fill="black" stroke-width="0" font-size="10" dy="3.25">M08_ARESETN</text>
<path d="M801 590h10" />
<text x="813" y="590" fill="black" stroke-width="0" font-size="10" dy="3.25">M09_ACLK</text>
<path d="M801 610h10" />
<text x="813" y="610" fill="black" stroke-width="0" font-size="10" dy="3.25">M09_ARESETN</text>
<path d="M801 630h10" />
<text x="813" y="630" fill="black" stroke-width="0" font-size="10" dy="3.25">M10_ACLK</text>
<path d="M801 650h10" />
<text x="813" y="650" fill="black" stroke-width="0" font-size="10" dy="3.25">M10_ARESETN</text>
<path d="M801 670h10" />
<text x="813" y="670" fill="black" stroke-width="0" font-size="10" dy="3.25">M11_ACLK</text>
<path d="M801 690h10" />
<text x="813" y="690" fill="black" stroke-width="0" font-size="10" dy="3.25">M11_ARESETN</text>
</g>
<g stroke="#41619f">
<path d="M818 42h206" />
<path d="M1024,42 A6.83537,6.83537 1.61957 0,1 1031,49" />
<path d="M1031 49v662" />
<path d="M1031,711 A6.83537,6.83537 1.61957 0,1 1024,718" />
<path d="M1024 718h-206" />
<path d="M818,718 A6.83537,6.83537 1.61957 0,1 811,711" />
<path d="M811 711v-662" />
<path d="M811,49 A6.83537,6.83537 1.61957 0,1 818,42" />
<path d="M788 782h266l3 1l2 1l1 2l1 3v122l-1 3l-1 2l-2 1l-3 1h-266l-3 -1l-2 -1l-1 -2l-1 -3v-122l1 -3l1 -2l2 -1z" stroke="none" fill="#edf6fe" />
<text x="921" y="780" fill="black" stroke-width="0" text-anchor="middle">sys_reseter</text>
<text x="921" y="920" fill="#41619f" stroke-width="0" text-anchor="middle" dy="7.7">Processor System Reset</text>
</g>
<g stroke="black" stroke-width="3">
<path d="M771 810h10" />
<text x="783" y="810" fill="black" stroke-width="0" font-size="10" dy="3.25">slowest_sync_clk</text>
<circle cx="778" cy="830" r="3" />
<path d="M771 830h4" />
<text x="783" y="830" fill="black" stroke-width="0" font-size="10" dy="3.25">ext_reset_in</text>
<circle cx="778" cy="850" r="3" />
<path d="M771 850h4" />
<text x="783" y="850" fill="black" stroke-width="0" font-size="10" dy="3.25">aux_reset_in</text>
<path d="M771 870h10" />
<text x="783" y="870" fill="black" stroke-width="0" font-size="10" dy="3.25">mb_debug_sys_rst</text>
<path d="M771 890h10" />
<text x="783" y="890" fill="black" stroke-width="0" font-size="10" dy="3.25">dcm_locked</text>
<path d="M1071 810h-10" />
<text x="1059" y="810" fill="black" stroke-width="0" font-size="10" text-anchor="end" dy="3.25">mb_reset</text>
</g>
<g stroke="black" stroke-width="5">
<path d="M1071 830h-10" />
<text x="1059" y="830" fill="black" stroke-width="0" font-size="10" text-anchor="end" dy="3.25">bus_struct_reset[0:0]</text>
<path d="M1071 850h-10" />
<text x="1059" y="850" fill="black" stroke-width="0" font-size="10" text-anchor="end" dy="3.25">peripheral_reset[0:0]</text>
<circle cx="1064" cy="870" r="3" />
<path d="M1071 870h-4" />
<text x="1059" y="870" fill="black" stroke-width="0" font-size="10" text-anchor="end" dy="3.25">interconnect_aresetn[0:0]</text>
<circle cx="1064" cy="890" r="3" />
<path d="M1071 890h-4" />
<text x="1059" y="890" fill="black" stroke-width="0" font-size="10" text-anchor="end" dy="3.25">peripheral_aresetn[0:0]</text>
</g>
<g stroke="#41619f">
<path d="M788 782h266" />
<path d="M1054,782 A6.83537,6.83537 1.61957 0,1 1061,789" />
<path d="M1061 789v122" />
<path d="M1061,911 A6.83537,6.83537 1.61957 0,1 1054,918" />
<path d="M1054 918h-266" />
<path d="M788,918 A6.83537,6.83537 1.61957 0,1 781,911" />
<path d="M781 911v-122" />
<path d="M781,789 A6.83537,6.83537 1.61957 0,1 788,782" />
</g>
<g>
<path d="M301 1090h-50v-300h500" />
<path d="M751 310h50" />
<path d="M751 270h50" />
<path d="M751 230h50" />
<path d="M751 190h50" />
<path d="M751 150h50" />
<path d="M751 110h50" />
<path d="M749 788h5v5h-5z" stroke="none" fill="#102235" />
<path d="M749 308h5v5h-5z" stroke="none" fill="#102235" />
<path d="M749 268h5v5h-5z" stroke="none" fill="#102235" />
<path d="M749 228h5v5h-5z" stroke="none" fill="#102235" />
<path d="M749 188h5v5h-5z" stroke="none" fill="#102235" />
<path d="M749 148h5v5h-5z" stroke="none" fill="#102235" />
<path d="M749 108h5v5h-5z" stroke="none" fill="#102235" />
<path d="M251 930h50" />
<path d="M221 830h30" />
<path d="M249 928h5v5h-5z" stroke="none" fill="#102235" />
<path d="M249 828h5v5h-5z" stroke="none" fill="#102235" />
<path d="M771 810h-20v-800h370v160h100" />
<path d="M1461 200h180" />
<path d="M1461 140h180" />
<path d="M1461 120h180" />
<path d="M1461 100h180" />
</g>
<g stroke="#41619f" stroke-width="4">
<path d="M681 950h50v10h380v160h70" />
<path d="M1501 1200h140" />
<path d="M221 1220h960" />
<path d="M301 910h-30v-70h480v110h360v-20h440v110h-50" />
</g>
<g>
<path d="M301 1010h-30v140h890v-170h360v100h-20" />
<path d="M1501 1100h140" />
<path d="M1501 1120h140" />
</g>
<g stroke-width="3">
<path d="M1501 1140h140" />
</g>
<g>
<path d="M1501 1240h140" />
<path d="M301 1070h-20v350h1310v-260h-90" />
<path d="M1591 1160h50" />
<path d="M1589 1158h5v5h-5z" stroke="none" fill="#102235" />
<path d="M221 1200h960" />
</g>
<g stroke="#41619f" stroke-width="4">
<path d="M221 1160h960" />
</g>
<g>
<path d="M1501 1180h140" />
<path d="M301 990h-40v440h1260v-170h-20" />
<path d="M681 990h50v-20h390v-30h460v-20h60" />
<path d="M681 1010h420v250h80" />
<path d="M681 1030h410v210h90" />
<path d="M681 1050h40v-10h410v-90h480v-10h30" />
<path d="M681 1070h60v-20h400v-90h500" />
<path d="M681 1090h70v-30h400v-90h460v10h30" />
</g>
<g stroke="#41619f" stroke-width="4">
<path d="M681 910h20v-840h100" />
<path d="M681 930h50v-840h70" />
</g>
<g>
<path d="M221 370h490" />
<path d="M711 390h90" />
<path d="M711 430h90" />
<path d="M711 470h90" />
<path d="M711 510h90" />
<path d="M711 550h90" />
<path d="M711 590h90" />
<path d="M711 630h90" />
<path d="M709 368h5v5h-5z" stroke="none" fill="#102235" />
<path d="M709 388h5v5h-5z" stroke="none" fill="#102235" />
<path d="M709 428h5v5h-5z" stroke="none" fill="#102235" />
<path d="M709 468h5v5h-5z" stroke="none" fill="#102235" />
<path d="M709 508h5v5h-5z" stroke="none" fill="#102235" />
<path d="M709 548h5v5h-5z" stroke="none" fill="#102235" />
<path d="M709 588h5v5h-5z" stroke="none" fill="#102235" />
<path d="M709 628h5v5h-5z" stroke="none" fill="#102235" />
<path d="M801 350h-90v320h90" />
<path d="M221 1050h20v230h940" />
<path d="M241 1050h60" />
<path d="M239 1048h5v5h-5z" stroke="none" fill="#102235" />
<path d="M221 810h520v20h30" />
</g>
<g stroke="#41619f" stroke-width="4">
<path d="M1041 270h70v-140h110" />
<path d="M1041 290h90v10h390v-19h120" />
<path d="M1041 310h90v10h400v-19h110" />
<path d="M1041 330h90v10h410v-19h100" />
<path d="M1041 350h90v10h420v-19h90" />
<path d="M1041 370h90v10h430v-19h80" />
<path d="M1041 390h90v10h440v-19h70" />
<path d="M1041 410h90v10h450v-19h60" />
<path d="M1041 430h90v10h460v-19h50" />
<path d="M1041 450h70v10h490v-19h40" />
<path d="M1041 470h70v10h500v-19h30" />
<path d="M1041 490h580v-9h20" />
</g>
<g stroke-width="3">
<path d="M301 950h-20v-100h440v-720h80" />
<path d="M721 750h400" />
<path d="M1121 500h450v1h70" />
<path d="M721 690h80" />
<path d="M721 650h80" />
<path d="M721 610h80" />
<path d="M721 570h80" />
<path d="M721 530h80" />
<path d="M721 490h80" />
<path d="M721 450h80" />
<path d="M721 410h80" />
<path d="M721 370h80" />
<path d="M721 330h80" />
<path d="M721 290h80" />
<path d="M721 250h80" />
<path d="M721 210h80" />
<path d="M721 170h80" />
<path d="M718 747h7v7h-7z" stroke="none" fill="#102235" />
<path d="M718 687h7v7h-7z" stroke="none" fill="#102235" />
<path d="M718 647h7v7h-7z" stroke="none" fill="#102235" />
<path d="M718 607h7v7h-7z" stroke="none" fill="#102235" />
<path d="M718 567h7v7h-7z" stroke="none" fill="#102235" />
<path d="M718 527h7v7h-7z" stroke="none" fill="#102235" />
<path d="M718 487h7v7h-7z" stroke="none" fill="#102235" />
<path d="M718 447h7v7h-7z" stroke="none" fill="#102235" />
<path d="M718 407h7v7h-7z" stroke="none" fill="#102235" />
<path d="M718 367h7v7h-7z" stroke="none" fill="#102235" />
<path d="M718 327h7v7h-7z" stroke="none" fill="#102235" />
<path d="M718 287h7v7h-7z" stroke="none" fill="#102235" />
<path d="M718 247h7v7h-7z" stroke="none" fill="#102235" />
<path d="M718 207h7v7h-7z" stroke="none" fill="#102235" />
<path d="M718 167h7v7h-7z" stroke="none" fill="#102235" />
<path d="M1071 870h50v-680h100" />
<path d="M1118 747h7v7h-7z" stroke="none" fill="#102235" />
<path d="M1118 497h7v7h-7z" stroke="none" fill="#102235" />
</g>
</g>
</svg>
